# xmcd CD database file
#
# Track frame offsets:
#	183
#	32848
#	54628
#	79228
#	107138
#	125713
#	147263
#	164210
#	182798
#	204143
#
# Disc length: 2959 seconds
#
# Revision: 28
# Processed by: cddbd v1.5.2PL0 Copyright (c) Steve Scherf et al.
# Submitted via: CDex 2.06
#
DISCID=930b8d0a
DTITLE=Marla Glen - Love and Respect
DYEAR=1995
DGENRE=Soul
TTITLE0=Ain't That a Shame
TTITLE1=Also Love You
TTITLE2=Break Free
TTITLE3=Repertoire
TTITLE4=You Got Me
TTITLE5=Love and Respect
TTITLE6=What About Our Kids
TTITLE7=City Love
TTITLE8=Other Plans
TTITLE9=Not Really Easy
EXTD=YEAR: 1995
EXTT0=
EXTT1=
EXTT2=
EXTT3=
EXTT4=
EXTT5=
EXTT6=
EXTT7=
EXTT8=
EXTT9=
PLAYORDER=
